<svg width="486" height="556" viewBox="0 0 486 556" fill="none" xmlns="http://www.w3.org/2000/svg">
<path d="M414.988 45.0161C452.914 73.9891 478.953 119.263 484.782 165.41C489.831 218.644 479.698 268.119 444.725 310.698C442.43 313.344 440.126 315.983 437.812 318.614C436.97 319.651 436.128 320.687 435.261 321.754C427.468 331.146 417.814 338.326 407.965 345.636C406.591 346.666 405.218 347.696 403.802 348.757C381.312 364.773 355.797 374.184 328.958 381.103C326.327 381.782 326.327 381.782 323.643 382.475C314.898 384.254 306.157 384.619 297.239 384.665C295.315 384.675 293.392 384.685 291.411 384.696C282.857 384.69 274.305 384.61 265.753 384.48C265.794 386.197 265.794 386.197 265.836 387.948C266.745 431.718 266.12 472.559 235.905 507.768C234.844 509.083 233.783 510.398 232.689 511.753C212.787 535.13 180.655 550.601 149.876 555.057C112.564 558.515 77.7279 548.237 48.0443 526.346C23.0025 506.419 5.26245 478.137 0.6401 446.969C-2.18062 407.382 3.75564 375.54 29.8288 343.631C44.4213 327.531 62.3602 314.604 83.1585 306.792C84.8967 306.792 86.6349 306.792 88.4257 306.792C88.414 305.188 88.4023 303.584 88.3902 301.931C88.2826 286.681 88.2041 271.43 88.1528 256.179C88.1255 248.342 88.0886 240.505 88.0283 232.668C87.9703 225.079 87.9394 217.49 87.9259 209.901C87.9163 207.032 87.8976 204.163 87.8688 201.294C87.6245 175.932 89.4609 150.333 99.2891 126.504C99.8192 125.179 100.349 123.854 100.895 122.489C121.383 72.9094 161.179 35.9617 211.49 14.524C225.014 9.12432 239.16 5.69292 253.463 2.79418C255.083 2.45456 256.703 2.11493 258.373 1.76502C315.595 -4.94766 369.803 11.4813 414.988 45.0161ZM175.875 87.2578C162.56 100.533 153.042 115.662 144.718 132.204C144.076 133.473 143.434 134.741 142.773 136.047C132.325 157.834 131.575 178.543 131.721 202.077C131.722 205.457 131.721 208.838 131.718 212.219C131.717 221.342 131.748 230.465 131.784 239.589C131.817 249.144 131.82 258.698 131.827 268.253C131.843 286.322 131.886 304.391 131.939 322.46C131.998 343.041 132.027 363.622 132.053 384.203C132.108 426.517 132.201 468.832 132.318 511.146C156.436 511.341 178.02 503.478 195.798 487.568C211.28 471.098 220.389 450.809 220.335 428.728C220.338 427.392 220.342 426.056 220.346 424.679C220.356 420.196 220.355 415.714 220.353 411.231C220.358 408.018 220.365 404.805 220.372 401.592C220.385 394.666 220.394 387.74 220.4 380.814C220.411 369.837 220.44 358.86 220.473 347.883C220.484 344.121 220.495 340.359 220.506 336.597C220.512 334.712 220.517 332.827 220.523 330.886C220.597 305.334 220.655 279.783 220.676 254.232C220.691 236.995 220.731 219.759 220.798 202.523C220.833 193.413 220.855 184.304 220.846 175.194C220.838 166.602 220.862 158.01 220.911 149.418C220.923 146.288 220.923 143.158 220.91 140.028C220.78 104.687 227.521 77.8765 248.195 48.3939C222.492 48.3939 193.263 70.7845 175.875 87.2578ZM283.31 73.727C268.083 90.5622 264.964 105.597 265.155 127.365C265.156 129.697 265.155 132.028 265.152 134.36C265.151 140.654 265.182 146.947 265.218 153.241C265.252 159.832 265.255 166.423 265.261 173.014C265.277 185.478 265.32 197.943 265.373 210.407C265.432 224.605 265.461 238.802 265.487 252.999C265.542 282.189 265.635 311.379 265.753 340.57C273.047 340.644 280.342 340.688 287.637 340.728C289.688 340.749 291.74 340.77 293.853 340.792C335.046 340.96 369.885 323.897 399.516 297.187C432.013 264.821 442.521 223.368 441.914 179.579C440.795 148.136 426.522 117.086 404.454 93.9935C403.268 92.7178 402.082 91.442 400.86 90.1276C382.102 70.9641 358.957 55.5459 331.153 54.7272C311.688 55.0042 297.774 61.1342 283.31 73.727ZM64.1681 372.269C48.6138 388.325 43.8557 409.389 44.2037 430.667C44.6055 438.197 45.6277 444.876 48.0443 452.036C48.4947 453.401 48.9451 454.766 49.4091 456.172C56.1206 474.265 69.2604 487.68 84.9143 499.324C86.073 499.324 87.2318 499.324 88.4257 499.324C88.4257 451.394 88.4257 403.463 88.4257 354.081C79.5661 354.081 70.2674 366.553 64.1681 372.269Z" fill="#EF1923"/>
</svg>
